HIERARCHY
ROOT Hips
{
	OFFSET -3.958830 18.904000 13.208200
	CHANNELS 6 Xposition Yposition Zposition Zrotation Yrotation Xrotation 
	JOINT LHipJoint
	{
		OFFSET 0.000000 0.000000 0.000000
		CHANNELS 3 Zrotation Yrotation Xrotation
		JOINT LeftUpLeg
		{
			OFFSET 1.800000 -1.400000 0.085000
			CHANNELS 3 Zrotation Yrotation Xrotation
			JOINT LeftLeg
			{
				OFFSET 2.215000 -6.000000 0.000000
				CHANNELS 3 Zrotation Yrotation Xrotation
				JOINT LeftFoot
				{
					OFFSET 2.500000 -6.900000 0.000000
					CHANNELS 3 Zrotation Yrotation Xrotation
					JOINT LeftToeBase
					{
						OFFSET 0.200000 -0.500000 1.950000
						CHANNELS 3 Zrotation Yrotation Xrotation
						End Site
						{
							OFFSET 0.000000 0.000000 0.000000
						}
					}
				}
			}
		}
	}
	JOINT RHipJoint
	{
		OFFSET 0.000000 0.000000 0.000000
		CHANNELS 3 Zrotation Yrotation Xrotation
		JOINT RightUpLeg
		{
			OFFSET -1.800000 -1.400000 0.085000
			CHANNELS 3 Zrotation Yrotation Xrotation
			JOINT RightLeg
			{
				OFFSET -2.215000 -6.000000 0.000000
				CHANNELS 3 Zrotation Yrotation Xrotation
				JOINT RightFoot
				{
					OFFSET -2.500000 -6.900000 0.000000
					CHANNELS 3 Zrotation Yrotation Xrotation
					JOINT RightToeBase
					{
						OFFSET -0.200000 -0.500000 1.950000
						CHANNELS 3 Zrotation Yrotation Xrotation
						End Site
						{
							OFFSET 0.000000 0.000000 0.000000
						}
					}
				}
			}
		}
	}
	JOINT LowerBack
	{
		OFFSET 0.000000 0.000000 0.000000
		CHANNELS 3 Zrotation Yrotation Xrotation
		JOINT Spine
		{
			OFFSET -0.087000 1.940000 -0.288900
			CHANNELS 3 Zrotation Yrotation Xrotation
			JOINT Spine1
			{
				OFFSET 0.000000 1.950000 0.060000
				CHANNELS 3 Zrotation Yrotation Xrotation
				JOINT Neck
				{
					OFFSET 0.000000 0.000000 0.000000
					CHANNELS 3 Zrotation Yrotation Xrotation
					JOINT Neck1
					{
						OFFSET 0.000000 1.600000 0.340000
						CHANNELS 3 Zrotation Yrotation Xrotation
						JOINT Head
						{
							OFFSET 0.000000 1.667000 -0.240000
							CHANNELS 3 Zrotation Yrotation Xrotation
							End Site
							{
								OFFSET 0.000000 0.000000 0.000000
							}
						}
					}
				}
				JOINT LeftShoulder
				{
					OFFSET 0.000000 0.000000 0.000000
					CHANNELS 3 Zrotation Yrotation Xrotation
					JOINT LeftArm
					{
						OFFSET 2.700000 1.550000 -0.730000
						CHANNELS 3 Zrotation Yrotation Xrotation
						JOINT LeftForeArm
						{
							OFFSET 5.450000 0.000000 0.000000
							CHANNELS 3 Zrotation Yrotation Xrotation
							JOINT LeftHand
							{
								OFFSET 3.450000 0.000000 0.000000
								CHANNELS 3 Zrotation Yrotation Xrotation
								JOINT LeftHandIndex1
								{
									OFFSET 0.750000 0.000000 0.000000
									CHANNELS 3 Zrotation Yrotation Xrotation
									End Site
									{
										OFFSET 0.000000 0.000000 0.000000
									}
								}
							}
						}
					}
				}
				JOINT RightShoulder
				{
					OFFSET 0.000000 0.000000 0.000000
					CHANNELS 3 Zrotation Yrotation Xrotation
					JOINT RightArm
					{
						OFFSET -2.700000 1.550000 -0.730000
						CHANNELS 3 Zrotation Yrotation Xrotation
						JOINT RightForeArm
						{
							OFFSET -5.450000 0.000000 0.000000
							CHANNELS 3 Zrotation Yrotation Xrotation
							JOINT RightHand
							{
								OFFSET -3.450000 0.000000 0.000000
								CHANNELS 3 Zrotation Yrotation Xrotation
								JOINT RightHandIndex1
								{
									OFFSET -0.750000 0.000000 0.000000
									CHANNELS 3 Zrotation Yrotation Xrotation
									End Site
									{
										OFFSET 0.000000 0.000000 0.000000
									}
								}
							}
						}
					}
				}
			}
		}
	}
}
MOTION
Frames: 8
Frame Time: 0.016667
-1.442250 13.531480 -6.920110 -64.903037 30.771367 -68.366038 -15.937198 14.685160 4.297909 -7.194333 -5.016109 -17.620262 -8.201486 13.407634 42.463568 0.229758 8.802960 1.640512 -0.187530 -0.591160 -0.142860 17.445391 -9.567341 2.734950 -1.163318 7.724863 -17.873584 -39.631364 13.131423 46.318308 -1.627631 -8.671639 1.620020 -0.296300 0.646430 0.025450 -1.053131 -7.368764 -7.845411 1.319208 6.349134 58.898647 5.858893 6.539304 21.341978 5.113494 2.681972 -16.972220 -1.307393 -6.270332 47.783944 22.298560 -12.191240 -20.000720 -6.706036 -32.688928 12.767641 -21.574766 -13.626052 2.920320 1.171569 0.352664 -1.102735 -3.853581 2.095676 1.010820 -0.012190 -0.048870 0.068330 -4.492970 36.285666 12.459300 -14.591617 -7.387641 -22.748975 -122.647378 3.128428 -24.616804 2.532828 -1.862442 -0.618720 0.763510 0.499240 -0.174880 
-1.433860 13.525440 -6.922640 -65.021373 31.106150 -68.539142 -15.944756 14.707264 4.331934 -8.336636 -5.148182 -17.972947 -5.906754 12.720441 44.125616 0.323531 8.693312 1.659715 -0.034450 -0.381740 -0.099300 17.437081 -9.619980 2.642328 -3.104041 7.864137 -20.296044 -32.380936 10.819374 51.732421 -1.556279 -8.499000 1.632867 -0.215030 0.562890 0.056560 -1.019758 -7.416839 -7.794148 0.805122 6.559369 58.253432 6.490446 6.044858 21.976333 4.920202 3.011376 -16.605076 -0.324305 -5.968650 47.736820 22.664760 -11.544450 -19.784120 -6.858110 -32.534256 12.745952 -21.982589 -13.709664 2.814428 1.558450 0.519826 -1.033734 -3.774935 2.283477 0.947420 -0.048310 0.003490 0.140310 -4.148325 36.027678 11.983055 -15.696275 -5.552635 -22.198663 -122.671277 3.417814 -24.514252 2.521789 -1.938249 -0.499690 0.668920 0.376660 -0.133610 
-1.435690 13.544120 -6.946370 -65.317202 29.674940 -69.091330 -15.927390 14.631721 4.229452 -8.163484 -5.132972 -19.535266 -3.328578 11.959294 46.132211 0.314827 8.758061 1.612826 0.002490 -0.350920 -0.097230 17.472729 -9.524245 2.773382 -4.514413 8.927948 -22.959001 -21.087659 5.209191 59.407140 -1.428699 -8.433657 1.597846 -0.192970 0.552330 0.094090 -1.164255 -7.145883 -7.863140 2.264511 5.819259 58.832655 6.113819 5.668470 22.385362 5.118010 3.077471 -16.565633 0.284077 -5.581419 47.521119 21.912900 -11.263630 -18.730710 -7.042526 -32.633416 12.933021 -22.300036 -12.994208 2.601347 2.415969 0.222008 -1.080215 -3.778625 2.382832 0.920810 -0.040920 -0.000930 0.153440 -4.394417 36.142155 11.546883 -16.100044 -3.051095 -22.024595 -123.345681 2.952586 -24.110079 2.494156 -1.975878 -0.466220 0.621060 0.368700 -0.126510 
-1.428260 13.534700 -6.980360 -67.460714 29.842789 -69.595892 -15.951035 14.373269 4.281857 -10.701338 -6.008237 -21.096270 0.981995 9.760502 47.296358 0.222576 8.442449 1.717053 0.049080 -0.279630 -0.127400 17.511072 -9.283987 2.928729 -7.878404 9.458790 -26.383723 -12.609298 -0.809957 66.548604 -1.489920 -9.240731 1.320119 -0.120600 0.585540 0.084830 -1.188692 -7.153321 -8.006602 3.463734 4.669433 58.107314 6.541760 3.985352 23.205533 5.403748 2.937151 -16.035167 0.783720 -5.063451 45.976151 20.705130 -11.004670 -17.379480 -7.457888 -32.457930 12.671250 -22.616181 -13.033725 2.491589 3.332620 0.129984 -1.129032 -3.806751 2.467274 0.851030 -0.008510 -0.056520 0.189780 -4.522255 35.797807 10.899467 -16.563497 -0.589742 -21.808145 -123.643099 2.793230 -24.234135 2.403006 -2.013951 -0.461220 0.622220 0.356920 -0.101070 
-1.420490 13.564000 -7.043170 -66.590753 27.778131 -68.879487 -15.990253 14.249931 4.062807 -9.350642 -5.713123 -22.595383 0.380984 9.750578 45.715197 0.223451 8.083965 1.822615 0.159780 -0.127900 -0.100810 17.514284 -8.880959 3.306047 -10.317688 10.734437 -28.492082 -1.679379 -8.007013 65.811606 -1.480347 -9.527936 1.211477 -0.053450 0.545120 0.121580 -1.176280 -7.155868 -8.175088 4.083333 4.545345 57.828295 6.525124 4.038983 24.325232 6.274886 2.706058 -15.987002 0.963518 -4.522204 45.363083 17.176930 -10.420150 -14.430090 -9.330001 -32.613139 12.921748 -22.564564 -11.814172 2.004986 4.707283 0.153994 -1.109737 -3.791847 2.654075 0.725930 0.013840 -0.059850 0.249870 -4.386301 36.933741 10.499755 -17.567550 1.755327 -21.488159 -123.385764 3.008057 -24.496109 2.427870 -2.137195 -0.353160 0.533940 0.266090 -0.053920 
-1.406690 13.546190 -7.118500 -64.414660 26.986482 -68.157314 -15.923458 13.873796 3.956981 -10.609516 -5.695981 -22.897584 0.444301 9.308079 43.363996 0.068301 7.632824 1.986221 0.104130 -0.218820 -0.094360 17.619160 -8.646937 3.691471 -15.427878 11.603076 -30.404911 8.478099 -13.705338 62.477484 -1.531987 -9.962057 1.064753 -0.100560 0.569950 0.143390 -1.486973 -6.500795 -8.382382 5.528222 4.038103 59.503774 4.159339 4.489886 23.228974 6.758649 3.095871 -16.307873 1.921736 -4.245119 46.308249 15.240400 -9.275260 -14.329620 -10.402080 -33.289538 13.402639 -21.620958 -10.702435 1.748433 4.926472 -0.336650 -1.203300 -3.832688 2.567964 0.780070 0.041690 -0.056430 0.217450 -4.159616 37.584239 9.791555 -18.179327 4.600926 -21.552249 -122.655190 3.647545 -24.333579 2.415822 -2.007578 -0.394740 0.561530 0.316540 -0.088970 
-1.380000 13.486730 -7.168570 -61.350804 25.776219 -66.449113 -15.905187 13.510617 4.006254 -12.702280 -6.172038 -24.280463 1.265733 8.260841 40.383214 -0.079179 6.924156 2.249051 0.042880 -0.270270 -0.134990 17.673406 -8.431503 3.938252 -19.537189 11.334233 -30.530618 19.001923 -16.715996 53.071691 -1.400595 -9.599857 1.155582 -0.121270 0.624320 0.145240 -1.624980 -6.069599 -8.525682 5.858640 4.335952 59.628996 2.780248 5.466778 22.909610 7.416109 2.779436 -16.095576 1.722091 -4.260036 45.157602 13.045960 -8.903820 -13.563080 -11.646133 -33.109903 13.353325 -21.833753 -10.343875 1.456710 5.948219 -0.596499 -1.276866 -3.897376 2.549924 0.739640 0.088000 -0.088450 0.206200 -4.197620 38.486687 9.249232 -19.250509 6.500328 -21.544999 -121.706239 4.111581 -23.884317 2.449842 -1.940747 -0.411750 0.593230 0.357450 -0.073060 
-1.347320 13.385220 -7.215460 -58.878470 24.043101 -63.924311 -15.794468 12.909937 4.150774 -14.569716 -7.179491 -26.941593 2.112532 6.708255 35.770352 -0.233691 5.764526 2.672411 0.087250 -0.195110 -0.152650 17.824632 -8.431961 4.138961 -22.017022 10.678095 -31.136681 25.972447 -16.795116 44.199701 -1.242960 -8.962191 1.350901 -0.090630 0.645160 0.156750 -2.075833 -4.855443 -8.696187 8.576385 3.246690 57.983111 0.513711 5.791113 22.756535 7.846598 2.711923 -15.889314 2.194151 -4.539366 44.652419 11.941180 -9.304000 -10.672300 -12.758827 -32.851978 13.114362 -21.926797 -10.678383 1.447237 5.778776 -0.324453 -1.207293 -3.916846 2.645391 0.635310 0.125980 -0.115910 0.264280 -3.738958 38.538964 8.593795 -19.331755 9.682256 -20.773263 -121.476121 4.286313 -23.150271 2.485465 -1.962115 -0.355300 0.554270 0.300000 -0.021620 
